# xmcd
#
# Track frame offsets:
# 183
# 14038
# 27260
# 39155
# 53263
# 66335
# 79953
# 91565
# 105565
# 117408
#
# Disc length: 1719 seconds
#
# Revision: 0
# Processed by: cddbd v1.5.1PL2 Copyright (c) Steve Scherf et al.
# Submitted via: Audion 3.0.2 (http://www.panic.com/audion/)
#
DISCID=7206b50a
DTITLE=Celina Y Reutilio - Santa Barbara
DYEAR=1900
DGENRE=
TTITLE0=A Santa Barbara (Viva A Chango)
TTITLE1=La Reina Del Mar
TTITLE2=El 17 (San Lazaro)
TTITLE3=Oye Mi Olelole
TTITLE4=El Hijo De Elegua
TTITLE5=La Caridad Del Cobre
TTITLE6=El Rey Del Mundo
TTITLE7=Perdoname Bongo
TTITLE8=Rumba Omelenco
TTITLE9=El Bururu
EXTD=
EXTT0=
EXTT1=
EXTT2=
EXTT3=
EXTT4=
EXTT5=
EXTT6=
EXTT7=
EXTT8=
EXTT9=
PLAYORDER=
